<svg width="20" height="20" viewBox="0 0 20 20" fill="none" xmlns="http://www.w3.org/2000/svg">
<path d="M7.40576 17.7778C8.09612 17.7778 8.65576 17.2181 8.65576 16.5278C8.65576 15.8374 8.09612 15.2778 7.40576 15.2778C6.71541 15.2778 6.15576 15.8374 6.15576 16.5278C6.15576 17.2181 6.71541 17.7778 7.40576 17.7778Z" fill="white"/>
<path d="M15 17.7778C15.6904 17.7778 16.25 17.2181 16.25 16.5278C16.25 15.8374 15.6904 15.2778 15 15.2778C14.3096 15.2778 13.75 15.8374 13.75 16.5278C13.75 17.2181 14.3096 17.7778 15 17.7778Z" fill="white"/>
<path d="M18.3779 2.98333C18.3262 2.9196 18.261 2.86811 18.187 2.83257C18.1131 2.79703 18.0322 2.77832 17.9501 2.77777H6.38344L6.74455 3.88889H17.2223L15.739 10.5556H7.40566L4.86677 2.51666C4.83931 2.43136 4.79162 2.35397 4.72777 2.29109C4.66392 2.22821 4.58581 2.18171 4.5001 2.15555L2.22232 1.45555C2.15229 1.43403 2.07869 1.42651 2.00575 1.43343C1.93281 1.44035 1.86194 1.46157 1.7972 1.49587C1.66644 1.56516 1.56857 1.68355 1.5251 1.825C1.48164 1.96645 1.49614 2.11937 1.56542 2.25012C1.63471 2.38088 1.7531 2.47875 1.89455 2.52222L3.88899 3.13333L6.43899 11.1889L5.52788 11.9333L5.45566 12.0056C5.23029 12.2653 5.10255 12.5954 5.09443 12.9392C5.08632 13.283 5.19835 13.6188 5.41121 13.8889C5.56264 14.073 5.75505 14.2192 5.97307 14.3156C6.19109 14.4121 6.42865 14.4562 6.66677 14.4444H15.939C16.0863 14.4444 16.2276 14.3859 16.3318 14.2817C16.436 14.1775 16.4945 14.0362 16.4945 13.8889C16.4945 13.7415 16.436 13.6002 16.3318 13.496C16.2276 13.3919 16.0863 13.3333 15.939 13.3333H6.57788C6.51391 13.3311 6.45158 13.3125 6.39691 13.2792C6.34225 13.2459 6.2971 13.199 6.26582 13.1432C6.23455 13.0873 6.2182 13.0244 6.21837 12.9604C6.21853 12.8963 6.2352 12.8335 6.26677 12.7778L7.60566 11.6667H16.1834C16.3119 11.6698 16.4374 11.6283 16.5387 11.5493C16.64 11.4703 16.7108 11.3587 16.739 11.2333L18.5001 3.45555C18.517 3.37273 18.5148 3.28714 18.4936 3.20531C18.4724 3.12348 18.4328 3.04756 18.3779 2.98333V2.98333Z" fill="white"/>
</svg>
