<svg width="18" height="14" viewBox="0 0 18 14" fill="none" xmlns="http://www.w3.org/2000/svg">
<path d="M17.3774 1.98333C17.3257 1.9196 17.2605 1.86811 17.1866 1.83257C17.1126 1.79703 17.0317 1.77832 16.9496 1.77777H5.38295L5.74406 2.88889H16.2218L14.7385 9.55555H6.40517L3.86628 1.51666C3.83882 1.43136 3.79113 1.35397 3.72728 1.29109C3.66343 1.22821 3.58532 1.18171 3.49961 1.15555L1.22184 0.455552C1.1518 0.434029 1.07821 0.426513 1.00526 0.433432C0.93232 0.44035 0.861453 0.461568 0.79671 0.495874C0.665956 0.565159 0.56808 0.683547 0.524614 0.824996C0.481148 0.966445 0.495652 1.11937 0.564937 1.25012C0.634221 1.38088 0.75261 1.47875 0.894058 1.52222L2.8885 2.13333L5.4385 10.1889L4.52739 10.9333L4.45517 11.0056C4.2298 11.2653 4.10206 11.5954 4.09395 11.9392C4.08583 12.283 4.19786 12.6188 4.41073 12.8889C4.56215 13.073 4.75456 13.2192 4.97258 13.3156C5.1906 13.4121 5.42817 13.4562 5.66628 13.4444H14.9385C15.0858 13.4444 15.2272 13.3859 15.3313 13.2817C15.4355 13.1775 15.4941 13.0362 15.4941 12.8889C15.4941 12.7415 15.4355 12.6002 15.3313 12.496C15.2272 12.3919 15.0858 12.3333 14.9385 12.3333H5.57739C5.51342 12.3311 5.45109 12.3125 5.39642 12.2792C5.34176 12.2459 5.29661 12.199 5.26533 12.1432C5.23406 12.0873 5.21771 12.0244 5.21788 11.9604C5.21804 11.8963 5.23472 11.8335 5.26628 11.7778L6.60517 10.6667H15.1829C15.3114 10.6698 15.4369 10.6283 15.5382 10.5493C15.6395 10.4703 15.7103 10.3587 15.7385 10.2333L17.4996 2.45555C17.5165 2.37273 17.5143 2.28714 17.4931 2.20531C17.4719 2.12348 17.4323 2.04756 17.3774 1.98333Z" fill="white"/>
</svg>
