<svg width="18" height="14" viewBox="0 0 18 14" fill="none" xmlns="http://www.w3.org/2000/svg">
<path d="M17.3779 1.98333C17.3262 1.9196 17.261 1.86811 17.187 1.83257C17.1131 1.79703 17.0322 1.77832 16.9501 1.77777H5.38344L5.74455 2.88889H16.2223L14.739 9.55555H6.40566L3.86677 1.51666C3.83931 1.43136 3.79162 1.35397 3.72777 1.29109C3.66392 1.22821 3.58581 1.18171 3.5001 1.15555L1.22232 0.455552C1.15229 0.434029 1.07869 0.426513 1.00575 0.433432C0.932808 0.44035 0.861942 0.461568 0.797199 0.495874C0.666444 0.565159 0.568568 0.683547 0.525102 0.824996C0.481636 0.966445 0.496141 1.11937 0.565425 1.25012C0.634709 1.38088 0.753098 1.47875 0.894547 1.52222L2.88899 2.13333L5.43899 10.1889L4.52788 10.9333L4.45566 11.0056C4.23029 11.2653 4.10255 11.5954 4.09443 11.9392C4.08632 12.283 4.19835 12.6188 4.41121 12.8889C4.56264 13.073 4.75505 13.2192 4.97307 13.3156C5.19109 13.4121 5.42865 13.4562 5.66677 13.4444H14.939C15.0863 13.4444 15.2276 13.3859 15.3318 13.2817C15.436 13.1775 15.4945 13.0362 15.4945 12.8889C15.4945 12.7415 15.436 12.6002 15.3318 12.496C15.2276 12.3919 15.0863 12.3333 14.939 12.3333H5.57788C5.51391 12.3311 5.45158 12.3125 5.39691 12.2792C5.34225 12.2459 5.2971 12.199 5.26582 12.1432C5.23455 12.0873 5.2182 12.0244 5.21837 11.9604C5.21853 11.8963 5.2352 11.8335 5.26677 11.7778L6.60566 10.6667H15.1834C15.3119 10.6698 15.4374 10.6283 15.5387 10.5493C15.64 10.4703 15.7108 10.3587 15.739 10.2333L17.5001 2.45555C17.517 2.37273 17.5148 2.28714 17.4936 2.20531C17.4724 2.12348 17.4328 2.04756 17.3779 1.98333Z" fill="white"/>
</svg>
